<svg width="455" height="102" viewBox="0 0 455 102" fill="none" xmlns="http://www.w3.org/2000/svg">
<path d="M95.3077 34.698C97.4349 32.0658 97.4349 28.3055 95.3077 25.6734L82.2125 9.46977C82.0989 9.32923 81.9279 9.24756 81.7472 9.24756H38.6718L51.9465 25.6734C54.0737 28.3055 54.0737 32.0658 51.9465 34.698L44.2552 44.215C41.3819 47.7704 35.9617 47.7704 33.0884 44.2151L25.397 34.698C23.2698 32.0658 23.2698 28.3055 25.397 25.6734L38.6718 9.24756H17.4532C17.2725 9.24756 17.1015 9.32923 16.9879 9.46977L3.89275 25.6734C1.76556 28.3055 1.76556 32.0658 3.89275 34.698L16.8636 50.7478C17.0409 50.9671 17.0409 51.2805 16.8636 51.4998L3.89275 67.5496C1.76556 70.1817 1.76556 73.942 3.89275 76.5742L16.9879 92.7778C17.1015 92.9183 17.2725 93 17.4532 93H60.7049L47.3149 76.6024C45.1571 73.96 45.1571 70.1638 47.3149 67.5213L55.1156 57.9685C57.9974 54.4394 63.3955 54.453 66.2594 57.9968L73.9796 67.5496C76.1068 70.1817 76.1068 73.942 73.9796 76.5742L60.7049 93H81.7472C81.9279 93 82.0989 92.9183 82.2125 92.7778L95.3077 76.5742C97.4349 73.942 97.4349 70.1817 95.3077 67.5496L82.3368 51.4998C82.1595 51.2805 82.1595 50.9671 82.3368 50.7478L95.3077 34.698Z" fill="#C8F084"/>
<path d="M119.823 86V15.8165H151.04C155.304 15.8165 158.96 17.3518 162.006 20.4223C165.076 23.4928 166.612 27.1482 166.612 31.3885V35.6287C166.612 39.1135 165.417 42.4765 163.029 45.7176C160.641 48.9343 156.644 50.5427 151.04 50.5427H158.789C160.933 50.5427 162.773 51.3103 164.309 52.8456C165.844 54.3809 166.612 56.2208 166.612 58.3653V86H151.04V62.6055C151.04 60.461 150.26 58.6211 148.7 57.0859C147.165 55.5506 145.337 54.783 143.217 54.783H135.394V86H119.823ZM135.394 47.0335H143.217C145.337 47.0335 147.165 46.2659 148.7 44.7306C150.26 43.171 151.04 41.3311 151.04 39.211V31.3885C151.04 29.2683 150.26 27.4528 148.7 25.9419C147.165 24.4067 145.337 23.639 143.217 23.639H135.394V47.0335ZM228.936 62.6055H197.719V70.428C197.719 72.5238 198.474 74.3393 199.985 75.8746C201.52 77.4098 203.373 78.1775 205.541 78.1775H213.364C218.53 78.1775 221.113 75.5943 221.113 70.428H228.936C227.717 80.8093 222.527 86 213.364 86H197.719C193.454 86 189.787 84.4769 186.716 81.4308C183.67 78.3602 182.147 74.6927 182.147 70.428V47.0335C182.147 42.7202 183.682 39.0404 186.753 35.9943C189.823 32.9237 193.479 31.3885 197.719 31.3885H213.364C217.629 31.3885 221.284 32.9359 224.33 36.0308C227.401 39.1013 228.936 42.7689 228.936 47.0335V62.6055ZM197.719 54.783H213.364V47.0335C213.364 44.889 212.584 43.0492 211.025 41.5139C209.489 39.9786 207.662 39.211 205.541 39.211C203.397 39.211 201.557 39.9786 200.022 41.5139C198.487 43.0492 197.719 44.889 197.719 47.0335V54.783ZM275.688 31.3885H291.26V59.3522C291.26 66.6142 288.641 72.8771 283.401 78.1409C278.186 83.3803 271.923 86 264.613 86H244.471V31.3885H260.043V78.1775H267.866C270.035 78.1775 271.875 77.4098 273.385 75.8746C274.921 74.3393 275.688 72.5238 275.688 70.428V31.3885ZM306.796 23.639V15.8165H322.368V23.639H306.796ZM306.796 86V31.3885H322.368V86H306.796ZM369.266 31.3885H384.838V59.3522C384.838 66.6142 382.219 72.8771 376.979 78.1409C371.764 83.3803 365.501 86 358.191 86H338.049V31.3885H353.621V78.1775H361.444C363.613 78.1775 365.453 77.4098 366.963 75.8746C368.499 74.3393 369.266 72.5238 369.266 70.428V31.3885ZM447.163 62.6055H415.946V70.428C415.946 72.5238 416.701 74.3393 418.212 75.8746C419.747 77.4098 421.599 78.1775 423.768 78.1775H431.591C436.757 78.1775 439.34 75.5943 439.34 70.428H447.163C445.944 80.8093 440.754 86 431.591 86H415.946C411.681 86 408.013 84.4769 404.943 81.4308C401.897 78.3602 400.374 74.6927 400.374 70.428V47.0335C400.374 42.7202 401.909 39.0404 404.98 35.9943C408.05 32.9237 411.705 31.3885 415.946 31.3885H431.591C435.855 31.3885 439.511 32.9359 442.557 36.0308C445.627 39.1013 447.163 42.7689 447.163 47.0335V62.6055ZM415.946 54.783H431.591V47.0335C431.591 44.889 430.811 43.0492 429.251 41.5139C427.716 39.9786 425.888 39.211 423.768 39.211C421.624 39.211 419.784 39.9786 418.249 41.5139C416.713 43.0492 415.946 44.889 415.946 47.0335V54.783Z" fill="black"/>
</svg>
