<svg width="340" height="60" viewBox="0 0 340 60" fill="none" xmlns="http://www.w3.org/2000/svg">
<path d="M28.6067 38.0467V15.4133C28.6067 14.3244 27.9067 13.7022 26.5067 13.5467L25.1533 13.4067C24.8111 13.3444 24.64 13.1267 24.64 12.7533C24.64 12.38 24.8578 12.1933 25.2933 12.1933L29.82 12.3333L33.46 12.1933C33.9267 12.1933 34.16 12.38 34.16 12.7533C34.16 13.1267 33.9578 13.3444 33.5533 13.4067L32.76 13.5467C31.5156 13.7644 30.8933 14.3867 30.8933 15.4133V44.9533C30.8933 45.3267 30.7222 45.5133 30.38 45.5133H29.7733C28.9956 45.5133 28.3267 45.14 27.7667 44.3933L8.12 19.24C8.05778 19.1778 7.96444 19.1467 7.84 19.1467C7.71556 19.1467 7.65333 19.3022 7.65333 19.6133V41.92C7.65333 42.9467 8.27556 43.5689 9.52 43.7867L10.3133 43.9267C10.7178 43.9889 10.92 44.2067 10.92 44.58C10.92 44.9533 10.6867 45.14 10.22 45.14L6.58 45L2.05333 45.14C1.61778 45.14 1.4 44.9533 1.4 44.58C1.4 44.2067 1.57111 43.9889 1.91333 43.9267L3.26667 43.7867C4.69778 43.6311 5.41333 43.0089 5.41333 41.92V15.4133C5.41333 14.3244 4.79111 13.7022 3.54667 13.5467L2.70667 13.4533C2.33333 13.3911 2.14667 13.1733 2.14667 12.8C2.14667 12.3956 2.38 12.1933 2.84667 12.1933L6.58 12.3333C7.48222 12.3644 8.16667 12.66 8.63333 13.22L28.0933 38.1867C28.1867 38.28 28.2956 38.3267 28.42 38.3267C28.5444 38.3267 28.6067 38.2333 28.6067 38.0467ZM40.9602 33.0067V15.4133C40.9602 14.2933 40.2446 13.6711 38.8135 13.5467L37.4602 13.4067C37.118 13.3444 36.9469 13.1422 36.9469 12.8C36.9469 12.3644 37.1646 12.1467 37.6002 12.1467L42.8735 12.3333L47.4935 12.1467C47.9602 12.1467 48.1935 12.3333 48.1935 12.7067C48.1935 13.1422 47.9913 13.3756 47.5869 13.4067L46.7935 13.5467C45.5491 13.7644 44.9269 14.3867 44.9269 15.4133V33.0533C44.9269 35.9467 45.798 38.2022 47.5402 39.82C49.2824 41.4378 51.5691 42.2467 54.4002 42.2467C57.2624 42.2467 59.5646 41.4222 61.3069 39.7733C63.0802 38.1244 63.9669 35.8844 63.9669 33.0533V15.4133C63.9669 14.3867 63.3446 13.7644 62.1002 13.5467L61.3069 13.4067C60.9024 13.3444 60.7002 13.1267 60.7002 12.7533C60.7002 12.38 60.9335 12.1933 61.4002 12.1933L65.0402 12.3333L69.5669 12.1933C70.0024 12.1933 70.2202 12.38 70.2202 12.7533C70.2202 13.1267 70.0491 13.3444 69.7069 13.4067L68.3535 13.5467C66.9224 13.7022 66.2069 14.3244 66.2069 15.4133V33.0067C66.2069 36.8333 65.0246 39.8822 62.6602 42.1533C60.3269 44.3933 57.3246 45.5133 53.6535 45.5133C49.9824 45.5133 46.9491 44.3467 44.5535 42.0133C42.158 39.68 40.9602 36.6778 40.9602 33.0067ZM88.114 15.74V41.92C88.114 42.48 88.3162 42.9311 88.7206 43.2733C89.1251 43.5844 89.6228 43.7711 90.214 43.8333L91.5673 43.9267C91.9406 43.9267 92.1273 44.1289 92.1273 44.5333C92.1273 44.72 92.0495 44.8756 91.894 45C91.7695 45.1244 91.6295 45.1867 91.474 45.1867L86.2006 45L80.414 45.1867C80.2584 45.1867 80.1028 45.1244 79.9473 45C79.8228 44.8756 79.7606 44.72 79.7606 44.5333C79.7606 44.1289 79.9473 43.9267 80.3206 43.9267L82.0473 43.8333C82.6384 43.7711 83.1362 43.5844 83.5406 43.2733C83.9451 42.9311 84.1473 42.48 84.1473 41.92V15.74C84.1473 14.9 83.7584 14.48 82.9806 14.48H79.0606C77.5362 14.48 76.3384 14.9 75.4673 15.74C74.5962 16.5489 73.9117 17.7622 73.414 19.38C73.2273 19.8467 72.9628 20.08 72.6206 20.08C72.3095 20.08 72.0762 20.0022 71.9206 19.8467C71.7651 19.66 71.7028 19.4578 71.734 19.24L72.1073 13.22C72.1695 12.6289 72.5117 12.3333 73.134 12.3333H98.9873C99.6406 12.3333 99.9984 12.7067 100.061 13.4533L100.527 19.24C100.558 19.4889 100.496 19.6911 100.341 19.8467C100.185 20.0022 99.9362 20.08 99.594 20.08C99.2828 20.08 99.034 19.8467 98.8473 19.38C98.2873 17.7311 97.5717 16.5022 96.7006 15.6933C95.8606 14.8844 94.694 14.48 93.2006 14.48H89.2806C88.5028 14.48 88.114 14.9 88.114 15.74ZM121.625 25.6333C123.087 24.42 123.818 22.8333 123.818 20.8733C123.818 18.9133 123.103 17.3578 121.672 16.2067C120.241 15.0244 118.436 14.4333 116.258 14.4333H111.872C110.627 14.4333 110.005 15.0556 110.005 16.3V26.8C110.005 27.2044 110.176 27.4067 110.518 27.4067H116.258C118.405 27.4067 120.194 26.8156 121.625 25.6333ZM117.845 12.3333C120.832 12.3333 123.274 13.0956 125.172 14.62C127.101 16.1444 128.065 18.1667 128.065 20.6867C128.065 23.1756 127.116 25.2444 125.218 26.8933C123.352 28.5111 121.267 29.3511 118.965 29.4133L118.918 29.5067C119.572 29.7244 120.085 30.1289 120.458 30.72L127.505 41.92C128.158 43.0089 129.185 43.6467 130.585 43.8333L131.425 43.9267C131.829 43.9889 132.032 44.1911 132.032 44.5333C132.032 44.9689 131.798 45.1867 131.332 45.1867C128.345 45.0622 126.478 45 125.732 45C125.016 45 124.456 44.6889 124.052 44.0667L116.165 30.9533C115.543 29.9889 114.858 29.5067 114.112 29.5067C114.112 29.5067 114.096 29.5067 114.065 29.5067H110.705C110.238 29.5067 110.005 29.6933 110.005 30.0667V41.92C110.005 42.48 110.207 42.9311 110.612 43.2733C111.016 43.6156 111.514 43.8022 112.105 43.8333L114.065 43.9267C114.407 43.9267 114.578 44.1444 114.578 44.58C114.578 44.9844 114.361 45.1867 113.925 45.1867L108.092 45L102.912 45.1867C102.507 45.1867 102.274 45 102.212 44.6267C102.212 44.1911 102.398 43.9578 102.772 43.9267L104.125 43.8333C105.401 43.74 106.038 43.1022 106.038 41.92V15.4133C106.038 14.2933 105.323 13.6711 103.892 13.5467L102.538 13.4067C102.196 13.3444 102.025 13.1422 102.025 12.8C102.025 12.3644 102.243 12.1467 102.678 12.1467L109.118 12.3333H117.845ZM142.162 32.1667H152.569C152.911 32.1667 153.02 31.98 152.896 31.6067L147.342 17.3267L141.789 31.7C141.696 32.0111 141.82 32.1667 142.162 32.1667ZM137.822 41.92C137.76 42.1067 137.729 42.3244 137.729 42.5733C137.729 42.7911 137.853 43.0556 138.102 43.3667C138.351 43.6467 138.693 43.8022 139.129 43.8333L140.156 43.9267C140.56 43.9889 140.762 44.1911 140.762 44.5333C140.762 44.9689 140.529 45.1867 140.062 45.1867L136.002 45L131.756 45.1867C131.32 45.1867 131.102 44.9844 131.102 44.58C131.102 44.1444 131.273 43.9267 131.616 43.9267L132.502 43.8333C133.84 43.6778 134.742 43.04 135.209 41.92L147.202 12.38C147.327 12.0067 147.685 11.82 148.276 11.82C148.898 11.82 149.287 12.0067 149.442 12.38L161.389 41.92C161.793 43.0711 162.68 43.7089 164.049 43.8333L165.029 43.9267C165.153 43.9267 165.262 43.9889 165.356 44.1133C165.449 44.2378 165.496 44.3622 165.496 44.4867C165.496 44.9533 165.278 45.1867 164.842 45.1867L159.476 45L154.669 45.1867C154.233 45.1867 154.016 45 154.016 44.6267C154.016 44.1911 154.202 43.9578 154.576 43.9267L155.649 43.8333C156.053 43.8022 156.38 43.6467 156.629 43.3667C156.909 43.0867 157.049 42.8222 157.049 42.5733C157.049 42.3244 157.002 42.1067 156.909 41.92L154.156 34.78C154.062 34.4689 153.813 34.3133 153.409 34.3133H141.322C140.949 34.3133 140.7 34.4689 140.576 34.78L137.822 41.92ZM185.04 26.7067C186.44 25.3378 187.14 23.5956 187.14 21.48C187.14 19.3644 186.44 17.6533 185.04 16.3467C183.64 15.04 181.648 14.3867 179.066 14.3867H176.266C175.022 14.3867 174.4 15.0089 174.4 16.2533V28.1067C174.4 28.5111 174.571 28.7133 174.913 28.7133H179.066C181.648 28.7133 183.64 28.0444 185.04 26.7067ZM180.046 12.3333C183.624 12.3333 186.408 13.1578 188.4 14.8067C190.422 16.4556 191.433 18.6489 191.433 21.3867C191.433 24.0933 190.453 26.3489 188.493 28.1533C186.533 29.9578 183.904 30.86 180.606 30.86H175.1C174.633 30.86 174.4 31.0467 174.4 31.42V41.92C174.4 42.48 174.602 42.9311 175.006 43.2733C175.411 43.6156 175.908 43.8022 176.5 43.8333L178.46 43.9267C178.802 43.9267 178.973 44.1444 178.973 44.58C178.973 44.9844 178.755 45.1867 178.32 45.1867L172.486 45L167.306 45.1867C166.84 45.1867 166.606 45 166.606 44.6267C166.606 44.1911 166.793 43.9578 167.166 43.9267L168.52 43.8333C169.795 43.74 170.433 43.1022 170.433 41.92V15.4133C170.433 14.2933 169.717 13.6711 168.286 13.5467L166.933 13.4067C166.591 13.3444 166.42 13.1422 166.42 12.8C166.42 12.3644 166.637 12.1467 167.073 12.1467L173.513 12.3333H180.046ZM211.532 11.82C216.448 11.82 220.383 13.3911 223.339 16.5333C226.326 19.6444 227.819 23.6578 227.819 28.5733C227.819 33.4889 226.295 37.5489 223.246 40.7533C220.228 43.9267 216.292 45.5133 211.439 45.5133C206.617 45.5133 202.697 43.9267 199.679 40.7533C196.661 37.58 195.152 33.5667 195.152 28.7133C195.152 23.8289 196.661 19.8 199.679 16.6267C202.697 13.4222 206.648 11.82 211.532 11.82ZM220.726 19.1467C219.823 17.56 218.579 16.3 216.992 15.3667C215.406 14.4333 213.555 13.9667 211.439 13.9667C207.643 13.9667 204.703 15.1333 202.619 17.4667C200.566 19.7689 199.539 22.9111 199.539 26.8933C199.539 31.0311 200.472 34.7333 202.339 38C203.241 39.6178 204.501 40.9244 206.119 41.92C207.737 42.8844 209.588 43.3667 211.672 43.3667C215.375 43.3667 218.252 42.1533 220.306 39.7267C222.39 37.3 223.432 34.0333 223.432 29.9267C223.432 25.82 222.53 22.2267 220.726 19.1467ZM258.75 38.0467V15.4133C258.75 14.3244 258.05 13.7022 256.65 13.5467L255.297 13.4067C254.954 13.3444 254.783 13.1267 254.783 12.7533C254.783 12.38 255.001 12.1933 255.437 12.1933L259.963 12.3333L263.603 12.1933C264.07 12.1933 264.303 12.38 264.303 12.7533C264.303 13.1267 264.101 13.3444 263.697 13.4067L262.903 13.5467C261.659 13.7644 261.037 14.3867 261.037 15.4133V44.9533C261.037 45.3267 260.865 45.5133 260.523 45.5133H259.917C259.139 45.5133 258.47 45.14 257.91 44.3933L238.263 19.24C238.201 19.1778 238.108 19.1467 237.983 19.1467C237.859 19.1467 237.797 19.3022 237.797 19.6133V41.92C237.797 42.9467 238.419 43.5689 239.663 43.7867L240.457 43.9267C240.861 43.9889 241.063 44.2067 241.063 44.58C241.063 44.9533 240.83 45.14 240.363 45.14L236.723 45L232.197 45.14C231.761 45.14 231.543 44.9533 231.543 44.58C231.543 44.2067 231.714 43.9889 232.057 43.9267L233.41 43.7867C234.841 43.6311 235.557 43.0089 235.557 41.92V15.4133C235.557 14.3244 234.934 13.7022 233.69 13.5467L232.85 13.4533C232.477 13.3911 232.29 13.1733 232.29 12.8C232.29 12.3956 232.523 12.1933 232.99 12.1933L236.723 12.3333C237.625 12.3644 238.31 12.66 238.777 13.22L258.237 38.1867C258.33 38.28 258.439 38.3267 258.563 38.3267C258.688 38.3267 258.75 38.2333 258.75 38.0467ZM268.537 45.1867C268.101 45.1867 267.883 45 267.883 44.6267C267.883 44.2222 268.055 43.9889 268.397 43.9267L269.19 43.8333C270.466 43.6778 271.103 43.04 271.103 41.92V15.4133C271.103 14.2933 270.388 13.6711 268.957 13.5467L267.603 13.4067C267.261 13.3444 267.09 13.1422 267.09 12.8C267.09 12.3644 267.308 12.1467 267.743 12.1467L273.017 12.3333L277.637 12.1467C278.103 12.1467 278.337 12.3333 278.337 12.7067C278.337 13.1422 278.135 13.3756 277.73 13.4067L276.937 13.5467C275.692 13.7644 275.07 14.3867 275.07 15.4133V41.92C275.07 42.48 275.272 42.9311 275.677 43.2733C276.081 43.5844 276.579 43.7711 277.17 43.8333L278.523 43.9267C278.897 43.9267 279.083 44.1289 279.083 44.5333C279.083 44.72 279.006 44.8756 278.85 45C278.726 45.1244 278.586 45.1867 278.43 45.1867L273.157 45L268.537 45.1867ZM309.948 20.3133C309.948 20.5311 309.87 20.7489 309.715 20.9667C309.59 21.1533 309.419 21.2467 309.201 21.2467C308.672 21.2467 308.33 20.9356 308.175 20.3133C307.615 18.2289 306.572 16.5956 305.048 15.4133C303.524 14.2311 301.719 13.64 299.635 13.64C295.87 13.64 292.868 14.9311 290.628 17.5133C288.419 20.0956 287.315 23.3933 287.315 27.4067C287.315 31.42 288.481 34.9978 290.815 38.14C293.179 41.2822 296.119 42.8533 299.635 42.8533C301.657 42.8533 303.166 42.6667 304.161 42.2933C305.188 41.8889 305.872 41.6089 306.215 41.4533C306.588 41.2667 307.055 40.9867 307.615 40.6133C308.175 40.24 308.486 40.0378 308.548 40.0067C309.108 39.6644 309.497 39.6178 309.715 39.8667C309.932 40.0844 310.041 40.3022 310.041 40.52C310.041 40.7378 309.917 40.9711 309.668 41.22C308.61 42.4022 307.521 43.2889 306.401 43.88C304.379 44.9689 301.968 45.5133 299.168 45.5133C294.315 45.5133 290.379 43.9111 287.361 40.7067C284.344 37.5022 282.835 33.4733 282.835 28.62C282.835 23.7667 284.375 19.7533 287.455 16.58C290.535 13.4067 294.595 11.82 299.635 11.82C302.248 11.82 304.612 12.1778 306.728 12.8933C308.875 13.6089 309.948 14.3089 309.948 14.9933V20.3133ZM336.67 36.5533C336.67 39.4778 335.566 41.7022 333.357 43.2267C331.179 44.7511 328.519 45.5133 325.377 45.5133C322.266 45.5133 319.699 45.14 317.677 44.3933C315.686 43.6467 314.69 42.8222 314.69 41.92V36.46C314.69 35.8067 314.939 35.48 315.437 35.48C315.841 35.48 316.121 35.7756 316.277 36.3667C317.086 38.7622 318.128 40.5511 319.403 41.7333C320.71 42.8844 322.53 43.46 324.863 43.46C327.197 43.46 329.079 42.9311 330.51 41.8733C331.972 40.8156 332.703 39.3533 332.703 37.4867C332.703 35.4333 331.552 33.7067 329.25 32.3067C328.223 31.6844 327.088 31.0778 325.843 30.4867C324.599 29.8956 323.355 29.2889 322.11 28.6667C320.866 28.0133 319.73 27.3133 318.703 26.5667C316.401 24.8867 315.25 22.7711 315.25 20.22C315.25 17.6378 316.23 15.6 318.19 14.1067C320.181 12.5822 322.515 11.82 325.19 11.82C327.866 11.82 330.137 12.1622 332.003 12.8467C333.87 13.5 334.803 14.2311 334.803 15.04V19.7533C334.803 20.3756 334.57 20.6867 334.103 20.6867C333.668 20.6867 333.341 20.3756 333.123 19.7533C332.47 17.7622 331.615 16.2844 330.557 15.32C329.499 14.3556 327.912 13.8733 325.797 13.8733C323.712 13.8733 322.063 14.3711 320.85 15.3667C319.637 16.3622 319.03 17.6067 319.03 19.1C319.03 20.5622 319.637 21.8378 320.85 22.9267C322.063 23.9844 323.526 24.9333 325.237 25.7733C326.979 26.5822 328.706 27.4378 330.417 28.34C332.159 29.2111 333.637 30.3467 334.85 31.7467C336.063 33.1467 336.67 34.7489 336.67 36.5533Z" fill="black"/>
<path d="M208.889 15.3704C208.889 18.3363 206.485 20.7407 203.519 20.7407C200.553 20.7407 198.148 18.3363 198.148 15.3704C198.148 12.4044 200.553 10 203.519 10C206.485 10 208.889 12.4044 208.889 15.3704Z" fill="#74C25D"/>
</svg>
