<svg width="446" height="113" viewBox="0 0 446 113" fill="none" xmlns="http://www.w3.org/2000/svg">
<path fill-rule="evenodd" clip-rule="evenodd" d="M82.5662 106.641C84.6628 105.549 85.88 103.328 85.88 100.964V92.66C85.88 88.9155 88.9155 85.88 92.66 85.88H100.964C103.328 85.88 105.549 84.6628 106.641 82.5662C110.704 74.7674 113 65.9019 113 56.5C113 25.2959 87.7041 0 56.5 0C25.2959 0 0 25.2959 0 56.5C0 87.7041 25.2959 113 56.5 113C65.9019 113 74.7674 110.704 82.5662 106.641Z" fill="#FF7337"/>
<path d="M59.3083 56.4992L79.2155 45.4282C80.6896 44.6084 82.4898 45.6918 82.4898 47.3986V70.3051C82.4898 71.1259 82.049 71.8813 81.3402 72.2755L61.433 83.3465C59.9589 84.1662 58.1587 83.0829 58.1587 81.3761V58.4696C58.1587 57.6488 58.5994 56.8934 59.3083 56.4992Z" fill="white"/>
<path d="M33.784 45.4282L53.6913 56.4992C54.4001 56.8934 54.8408 57.6488 54.8408 58.4696V81.3761C54.8408 83.0829 53.0406 84.1662 51.5666 83.3465L31.6593 72.2755C30.9505 71.8813 30.5098 71.1259 30.5098 70.3051V47.3986C30.5098 45.6918 32.31 44.6084 33.784 45.4282Z" fill="white"/>
<path d="M55.883 25.1614L35.0073 37.2698C33.5145 38.1357 33.5223 40.3244 35.0212 41.1794L55.8972 53.0861C56.5818 53.4766 57.4189 53.4692 58.0968 53.0666L78.1457 41.1601C79.6 40.2964 79.6077 38.1644 78.1597 37.2899L58.1105 25.1813C57.4257 24.7678 56.5749 24.7602 55.883 25.1614Z" fill="white"/>
<path d="M419.955 40.1433C429.687 40.1433 437.473 47.6653 437.473 57.4925C437.473 67.3197 429.813 74.9024 419.829 74.9024C415.308 74.9024 411.541 73.3859 409.029 70.8987V86.3068H400.992V40.8713H408.59V44.9356C411.039 41.9025 415.12 40.1433 419.955 40.1433ZM419.013 67.805C424.853 67.805 429.122 63.4374 429.122 57.5532C429.122 51.6084 424.853 47.3014 419.013 47.3014C413.236 47.3014 409.029 51.5477 409.029 57.5532C409.029 63.498 413.236 67.805 419.013 67.805Z" fill="black"/>
<path d="M386.621 36.5372V28.4692H394.658V36.5372H386.621ZM386.621 74.2081V40.9049H394.658V74.2081H386.621Z" fill="black"/>
<path d="M367.767 40.2001C375.49 40.2001 380.953 45.3563 380.953 52.6357V74.1706H372.916V54.5162C372.916 50.2092 369.965 47.2975 365.569 47.2975C361.237 47.2975 358.223 50.1486 358.223 54.5162V74.1706H350.186V28.2498H358.223V44.2037C360.232 41.5953 363.685 40.2001 367.767 40.2001Z" fill="black"/>
<path d="M327.911 74.8985C318.618 74.8985 310.832 69.8029 308.32 62.3416L315.478 59.1872C317.802 64.768 322.637 67.8011 327.911 67.8011C333.185 67.8011 336.513 65.3746 336.513 62.2202C336.513 59.1872 334.316 57.7313 331.05 56.7607L321.632 53.9703C313.72 51.6651 309.89 47.1762 309.89 41.3527C309.89 33.588 316.609 28.2498 326.404 28.2498C335.383 28.2498 342.29 33.1027 344.739 39.5328L337.518 42.7479C335.822 38.0769 331.741 35.3472 326.467 35.3472C321.569 35.3472 318.367 37.713 318.367 40.9887C318.367 43.6578 320.439 45.599 323.955 46.5696L333.06 49.2387C340.971 51.5438 344.927 55.5475 344.927 61.6743C344.927 69.621 338.083 74.8985 327.911 74.8985Z" fill="black"/>
<path d="M307.119 40.8674L294.247 54.3949L307.119 74.1706H298.265L288.972 59.9758L283.572 65.3746V74.1706H275.535V28.2498H283.572V55.3655L297.637 40.8674H307.119Z" fill="black"/>
<path d="M255.894 74.9024C245.597 74.9024 237.811 67.3804 237.811 57.4925C237.811 47.6047 245.534 40.1433 255.894 40.1433C263.241 40.1433 269.394 44.147 271.529 49.9098L264.622 53.1856C263.303 49.6065 259.913 47.3014 255.831 47.3014C250.306 47.3014 246.162 51.487 246.162 57.5532C246.162 63.4374 250.18 67.805 255.894 67.805C260.101 67.805 263.303 65.4392 264.622 61.8602L271.529 65.2572C269.52 70.7774 263.303 74.9024 255.894 74.9024Z" fill="black"/>
<path d="M225.336 36.5372V28.4692H233.373V36.5372H225.336ZM225.336 74.2081V40.9049H233.373V74.2081H225.336Z" fill="black"/>
<path d="M211.006 40.7854H219.043V74.0886H211.445V70.1456C209.561 73.1787 205.857 74.8166 201.587 74.8166C193.801 74.8166 188.275 69.1144 188.275 61.3497V40.7854H196.313V60.5004C196.313 64.868 199.326 67.7191 203.659 67.7191C207.929 67.7191 211.006 64.868 211.006 60.5004V40.7854Z" fill="black"/>
<path d="M183.328 51.544C183.328 59.794 179.246 66.7701 172.779 70.8951L179.498 82.0568H170.519L165.809 73.9888C163.549 74.5955 161.163 74.8988 158.651 74.8988C144.712 74.8988 133.975 64.9503 133.975 51.544C133.975 38.1985 144.649 28.25 158.651 28.25C172.653 28.25 183.328 38.1985 183.328 51.544ZM158.651 67.498C159.719 67.498 160.786 67.3767 161.854 67.1947L155.323 56.0937H163.926L168.823 64.2223C172.528 61.3712 174.851 56.8216 174.851 51.544C174.851 42.3841 167.944 35.6507 158.651 35.6507C149.358 35.6507 142.389 42.3841 142.389 51.544C142.389 60.7039 149.358 67.498 158.651 67.498Z" fill="black"/>
</svg>
