<svg width="401" height="111" viewBox="0 0 401 111" fill="none" xmlns="http://www.w3.org/2000/svg">
<g clip-path="url(#clip0_3007_11349)">
<path d="M401 29.3971C401 12.9825 391.817 2.83525 377.109 2.83525C365.014 2.83525 356.428 9.17726 354.263 19.026C351.948 14.997 349.783 11.5648 347.767 9.02803C345.677 6.26739 341.346 2.98447 332.611 2.98447C323.801 2.98447 313.797 6.19278 308.795 9.25187L308.197 9.62493C302.15 5.44666 293.937 2.90986 284.754 2.90986C270.867 2.90986 258.772 7.75963 249.888 16.8623C249.216 17.5338 248.619 18.2053 247.947 18.9514C242.795 9.10264 230.775 2.90986 215.992 2.90986C197.7 2.90986 183.291 11.0426 174.63 24.995C175.228 17.4592 175.825 13.2063 175.899 13.1317L176.87 6.26739H134.687C129.461 1.11918 122.517 0 117.441 0C103.404 0 95.6397 7.98347 93.2506 17.3099C89.7416 9.32648 84.7393 2.76064 74.5109 2.76064C67.1942 2.83525 55.2486 6.04356 53.9047 6.41662L47.4839 8.2073L49.9477 14.4001C55.9952 29.3971 61.296 44.021 65.701 57.8242C64.6557 61.1817 63.4612 64.3154 62.3413 67.076C62.2666 66.8522 62.192 66.5538 62.1173 66.2553C58.9816 56.0335 54.8753 42.0065 48.0065 23.2043C44.3482 12.9078 39.7192 2.83525 26.9523 2.83525C19.7103 2.83525 7.76466 6.04356 6.42078 6.41662L0 8.2073L2.46379 14.4001C16.7239 49.9899 23.8913 75.9548 27.3256 88.4896C28.3709 92.2202 29.0428 94.6824 29.5654 96.2493C32.4025 104.233 38.9726 108.859 47.6332 108.859C55.6219 108.859 62.192 105.053 71.4498 99.3084L72.5697 98.5622L73.3163 97.4431C74.0629 96.2493 75.0335 94.6078 76.0041 92.8171C76.4521 94.3094 76.7507 95.4285 77.0493 96.2493C79.8864 104.233 86.4565 108.859 95.1171 108.859C103.106 108.859 109.676 105.053 118.934 99.3084L120.128 98.5622L120.875 97.3684C123.563 92.9663 130.058 80.0585 135.284 65.36C134.911 87.2212 132.895 100.129 132.895 100.278L131.85 107.143H170.076H177.094L176.049 100.278C176.049 100.204 175.75 98.1892 175.302 94.4586C175.452 94.6824 175.601 94.9063 175.75 95.0555C183.515 105.203 195.236 110.5 209.646 110.5C216.739 110.5 223.757 109.157 230.028 106.62C234.508 109.083 240.331 110.351 246.976 110.351C247.573 110.351 248.171 110.351 248.768 110.276C251.978 109.978 254.666 107.889 255.786 104.904C262.207 108.635 269.747 110.5 278.483 110.5C285.575 110.5 292.593 109.157 298.865 106.62C303.344 109.083 309.168 110.351 315.813 110.351C320.218 110.351 324.175 108.933 326.862 106.322C329.55 103.785 329.849 99.6068 327.684 96.6223C327.31 96.1 326.041 93.8617 326.041 87.4451V67.0014C326.041 53.4221 318.426 49.9153 306.779 49.4677C312.752 46.4832 316.634 41.6334 318.426 36.1867C323.951 46.1847 330.147 58.7941 333.358 70.0605C333.358 91.1757 332.387 97.6669 332.163 99.0845L327.086 107.143H368.075L379.199 108.113L373.824 99.2337C373.6 97.7415 372.928 91.6233 372.928 71.702C393.086 56.4812 401 44.4687 401 29.3971ZM109.825 67.076C109.751 66.7776 109.676 66.4791 109.527 66.1807C107.884 60.6594 105.943 54.019 103.33 46.1101C106.913 48.7961 111.094 50.363 115.275 50.5868C113.633 57.0034 111.692 62.5247 109.825 67.076ZM205.54 57.9734C204.942 53.2729 204.793 48.5723 204.793 44.6179C204.793 32.2323 208.078 25.8157 209.646 24.9204C211.288 26.338 212.707 33.3515 213.454 36.7836C214.573 42.1557 215.768 47.9754 219.202 50.736C212.259 52.2283 207.63 54.6159 205.54 57.9734ZM219.426 83.6399C214.275 81.9238 210.915 77.3725 208.675 71.6274C211.736 74.3134 215.843 76.2533 219.426 77.2979V83.6399ZM274.227 57.9734C273.63 53.2729 273.48 48.5723 273.48 44.6925C273.48 32.3069 276.765 25.8903 278.333 24.995C279.976 26.4126 281.394 33.4261 282.141 36.8582C283.261 42.1557 284.455 48.05 287.89 50.8107C281.992 52.0044 276.691 54.1682 274.227 57.9734ZM288.114 83.6399C282.962 81.9238 279.602 77.3725 277.363 71.6274C280.424 74.3134 284.53 76.2533 288.114 77.2979V83.6399Z" fill="#FEF08A"/>
<path d="M26.9519 8.8041C34.2686 8.8041 38.0016 12.9077 42.3319 25.2187C53.9042 57.1526 58.0105 75.9548 61.1462 82.8937C64.8046 76.7009 68.7616 68.1951 71.8973 57.8987C67.9403 45.2147 62.5648 29.8446 55.5467 12.1616C55.5467 12.1616 67.8657 8.8041 74.5104 8.8041C81.8271 8.8041 85.5601 12.9077 89.8904 25.2187C101.463 57.1526 105.42 75.3579 108.705 82.8937C114.08 73.8656 119.904 60.137 123.264 42.9017C113.11 49.0945 98.4017 39.0965 98.4017 24.0995C98.4017 14.6238 104.076 6.04346 117.515 6.04346C127.668 6.04346 136.852 11.1171 136.852 30.2177C136.852 52.079 121.024 85.8781 115.798 94.3839C106.764 100.054 101.239 103.039 95.1913 103.039C89.1438 103.039 84.7389 100.054 82.723 94.3839C81.9018 91.9963 80.3339 85.8035 77.6461 76.3278C73.8385 84.6843 70.3295 91.3248 68.3136 94.3839C59.2797 100.054 53.7549 103.039 47.7074 103.039C41.6599 103.039 37.255 100.054 35.2392 94.3839C33.1487 88.3403 26.5039 58.1971 8.06284 12.3109C7.98818 12.1616 20.3071 8.8041 26.9519 8.8041Z" fill="#98A3F3" stroke="black" stroke-width="1.33223" stroke-miterlimit="10"/>
<path d="M138.793 101.174C138.793 101.174 141.331 84.9082 141.331 57.3764C141.331 29.9939 138.793 12.1616 138.793 12.1616H170.001C170.001 12.1616 167.462 29.5462 167.462 57.2272C167.462 85.0574 170.001 101.174 170.001 101.174H138.793Z" fill="#98A3F3" stroke="black" stroke-width="1.33223" stroke-miterlimit="10"/>
<path d="M244.361 95.0554C237.716 86.4004 234.207 74.6864 234.207 61.0324C234.207 59.9132 234.207 58.794 234.282 57.7495C234.357 56.4811 233.237 55.3619 231.967 55.4365C220.918 55.8096 210.017 58.1225 210.017 62.8977C210.017 67.2998 218.902 71.6273 224.053 72.2988C224.725 72.3734 225.248 72.9703 225.248 73.7164V88.9372C225.248 89.6833 224.651 90.3548 223.829 90.3548C202.477 90.3548 198.669 63.0469 198.669 44.6924C198.669 30.2923 202.925 18.9513 209.569 18.9513C220.32 18.9513 217.931 46.4831 223.979 46.4831C228.832 46.4831 232.789 45.4385 235.924 43.6478C241.524 40.4395 244.436 34.9929 244.436 29.2477C244.436 27.5317 244.212 25.8902 243.689 24.2488C240.777 15.1461 230.026 8.72949 215.915 8.72949C190.083 8.72949 171.418 27.5317 171.418 60.9578C171.418 84.0128 182.468 104.456 209.42 104.456C217.782 104.456 224.8 102.442 230.325 99.8306C233.685 102.517 239.06 104.382 246.75 104.382C247.198 104.382 247.571 104.382 247.945 104.307C249.961 104.158 250.707 101.696 249.214 100.353C247.571 98.8606 245.929 97.0699 244.361 95.0554Z" fill="#98A3F3" stroke="black" stroke-width="1.33223" stroke-miterlimit="10"/>
<path d="M319.843 87.5197V67.0014C319.843 58.2718 316.857 55.4366 303.866 55.4366C291.846 55.4366 278.855 57.6749 278.855 62.8978C278.855 67.2999 287.739 71.6274 292.891 72.2989C293.563 72.3735 294.085 72.9704 294.085 73.7165V88.9373C294.085 89.6834 293.488 90.3549 292.667 90.3549C271.314 90.3549 267.506 63.047 267.506 44.6925C267.506 30.2924 271.762 18.9514 278.407 18.9514C289.158 18.9514 286.769 46.4832 292.816 46.4832C306.255 46.4832 313.348 38.1266 313.348 29.2478C313.348 17.683 301.327 8.8042 284.828 8.8042C260.414 8.8042 242.421 25.5919 240.479 55.6604C240.33 57.4511 240.33 59.2418 240.33 61.1071C240.33 74.0895 243.839 86.3259 251.753 94.4586C257.875 100.726 266.61 104.68 278.332 104.68C286.694 104.68 293.712 102.666 299.237 100.054C302.597 102.74 307.972 104.606 315.662 104.606C319.022 104.606 321.336 103.487 322.606 102.218C323.128 101.771 323.128 100.95 322.755 100.428C321.336 98.4876 319.843 94.9062 319.843 87.5197Z" fill="#98A3F3" stroke="black" stroke-width="1.33223" stroke-miterlimit="10"/>
<path d="M337.463 100.726C337.463 100.726 339.106 97.3684 339.106 69.2397C332.461 44.6924 311.93 14.2508 311.93 14.2508C318.425 10.2963 337.538 5.37196 343.063 12.5347C349.11 20.4436 358.219 38.1266 364.416 55.2127C369.343 51.7059 373.3 47.6023 376.287 43.4986C366.282 41.111 359.712 33.2022 359.712 23.8757C359.712 14.4 366.506 8.72949 377.108 8.72949C390.398 8.72949 395.026 18.6529 395.026 29.3224C395.026 41.3349 389.502 52.079 366.88 68.5682C366.73 97.6668 368 101.024 368 101.024H337.538L337.463 100.726Z" fill="#98A3F3" stroke="black" stroke-width="1.33223" stroke-miterlimit="10"/>
</g>
<defs>
<clipPath id="clip0_3007_11349">
<rect width="401" height="110.575" fill="white"/>
</clipPath>
</defs>
</svg>
