<svg width="394" height="111" viewBox="0 0 394 111" fill="none" xmlns="http://www.w3.org/2000/svg">
<g clip-path="url(#clip0_3007_11267)">
<path d="M373.133 84.7293C362.488 84.7293 355.17 77.0355 355.17 65.7906C355.17 54.4717 362.34 46.6299 372.837 46.6299C383.112 46.6299 389.839 53.7319 389.839 64.4589V67.0482L361.897 67.1222C362.414 74.7421 366.406 78.9589 373.281 78.9589C378.677 78.9589 382.225 76.7395 383.408 72.5967H389.913C388.139 80.3645 382.077 84.7293 373.133 84.7293ZM372.837 52.4743C366.776 52.4743 362.932 56.0993 362.045 62.4615H382.89C382.89 56.4692 378.973 52.4743 372.837 52.4743Z" fill="#0C1F19"/>
<path d="M322.914 73.3365H329.567C329.567 77.0355 332.376 79.2548 336.959 79.2548C341.838 79.2548 344.647 77.2574 344.647 73.9283C344.647 71.487 343.464 70.0074 339.694 69.0457L333.337 67.5661C326.906 66.0125 323.875 62.8314 323.875 57.5049C323.875 50.8467 329.493 46.6299 337.477 46.6299C345.386 46.6299 350.561 51.0687 350.709 57.9487H344.056C343.908 54.3238 341.468 52.0304 337.255 52.0304C332.893 52.0304 330.454 53.9539 330.454 57.2829C330.454 59.7243 332.228 61.3518 335.776 62.2396L342.134 63.7931C348.269 65.2727 351.3 68.0839 351.3 73.4844C351.3 80.3645 345.386 84.7293 336.811 84.7293C328.31 84.7293 322.914 80.2166 322.914 73.3365Z" fill="#0C1F19"/>
<path d="M313.718 39.0802C311.205 39.0802 309.135 37.0088 309.135 34.4935C309.135 31.9042 311.205 29.9067 313.718 29.9067C316.231 29.9067 318.301 31.9042 318.301 34.4935C318.301 37.0088 316.231 39.0802 313.718 39.0802ZM310.318 83.8378V47.6618H317.266V83.8378H310.318Z" fill="#0C1F19"/>
<path d="M262.814 83.8376L250.986 47.6616H258.157L264.144 66.4524C264.957 69.1157 265.697 71.8529 266.362 75.034C266.953 71.8529 267.914 68.8198 268.727 66.4524L274.789 47.6616H281.886L287.873 66.4524C288.465 68.2279 289.647 72.4448 290.239 75.034C290.83 72.1488 291.495 69.6335 292.53 66.4524L298.592 47.6616H305.836L293.491 83.8376H286.912L280.629 64.455C279.446 60.83 278.707 58.0188 278.337 56.0213C277.968 57.7968 277.302 60.1642 275.972 64.5289L269.688 83.8376H262.814Z" fill="#0C1F19"/>
<path d="M232.773 84.7254C222.276 84.7254 215.254 77.1795 215.254 65.9346C215.254 54.7637 222.203 47.0698 232.404 47.0698C242.087 47.0698 248.666 53.9499 248.666 64.0851V66.6004H220.207C220.576 75.33 225.159 80.3606 232.847 80.3606C238.687 80.3606 242.457 77.8453 243.788 73.1106H248.666C246.744 80.6565 241.2 84.7254 232.773 84.7254ZM232.404 51.4346C225.677 51.4346 221.242 55.8734 220.354 62.9014H243.566C243.566 56.0213 239.131 51.4346 232.404 51.4346Z" fill="#0C1F19"/>
<path d="M182.849 83.8376H177.748V48.0316H182.183L182.923 54.2458C185.288 49.6591 190.019 47.0698 195.194 47.0698C205.025 47.0698 209.091 52.9142 209.091 61.9397V83.8376H203.99V63.0494C203.99 54.6897 200.22 51.7305 194.306 51.7305C186.988 51.7305 182.849 57.0571 182.849 65.1208V83.8376Z" fill="#0C1F19"/>
<path d="M165.993 38.1897C163.923 38.1897 162.223 36.4882 162.223 34.4168C162.223 32.3453 163.923 30.5698 165.993 30.5698C168.062 30.5698 169.837 32.3453 169.837 34.4168C169.837 36.4882 168.062 38.1897 165.993 38.1897ZM163.479 83.8351V48.029H168.58V83.8351H163.479Z" fill="#0C1F19"/>
<path d="M152.915 60.5335H131.256V83.837H125.934V30.8677H157.128V35.7503H131.256V55.7248H152.915V60.5335Z" fill="#0C1F19"/>
<g clip-path="url(#clip1_3007_11267)">
<path fill-rule="evenodd" clip-rule="evenodd" d="M55.4411 110.959C86.0604 110.959 110.882 86.1177 110.882 55.4744C110.882 24.8311 86.0604 -0.0102539 55.4411 -0.0102539C24.8218 -0.0102539 0 24.8311 0 55.4744C0 86.1177 24.8218 110.959 55.4411 110.959ZM43.0112 28.0707C43.0112 27.5449 43.4361 27.1156 43.9563 27.1156H80.3686C80.8888 27.1156 81.3137 27.5449 81.3137 28.0707V43.3659C81.3137 43.8916 80.8888 44.321 80.3686 44.321H52.4665C51.9463 44.321 51.5214 44.7504 51.5214 45.2761V51.9708C51.5214 52.4966 51.9463 52.9259 52.4665 52.9259H63.3438C63.8641 52.9259 64.2889 53.3553 64.2889 53.8811V69.1719C64.2889 69.6976 63.8641 70.127 63.3438 70.127H52.4665C51.9463 70.127 51.5214 70.5564 51.5214 71.0821V87.81C51.5214 88.3358 51.0966 88.7651 50.5764 88.7651H35.4418C34.9216 88.7651 34.4967 88.3358 34.4967 87.81V66.7797C34.4967 66.2539 34.9216 65.8245 35.4418 65.8245H42.0618C42.582 65.8245 43.0069 65.3952 43.0069 64.8694V58.1791C43.0069 57.6534 42.582 57.224 42.0618 57.224H35.4418C34.9216 57.224 34.4967 56.7946 34.4967 56.2689V36.6712C34.4967 36.1455 34.9216 35.7161 35.4418 35.7161H42.0661C42.5864 35.7161 43.0112 35.2867 43.0112 34.761V28.0707Z" fill="#0C1F19"/>
</g>
</g>
<defs>
<clipPath id="clip0_3007_11267">
<rect width="393.016" height="110.969" fill="white"/>
</clipPath>
<clipPath id="clip1_3007_11267">
<rect y="-0.00341797" width="110.882" height="110.969" rx="55.4411" fill="white"/>
</clipPath>
</defs>
</svg>
