<svg width="422" height="109" viewBox="0 0 422 109" fill="none" xmlns="http://www.w3.org/2000/svg">
<rect width="109" height="109" rx="32.7" fill="black"/>
<path fill-rule="evenodd" clip-rule="evenodd" d="M61.9893 48.5315L54.3125 40.8652H61.9893V48.5315Z" fill="#A855F7"/>
<path fill-rule="evenodd" clip-rule="evenodd" d="M77.3463 38.9199L90.3984 46.8381H77.3463V72.8962H61.4764L49.9612 61.1508V49.9093L64.6527 65.2339H69.6695V29.3794H55.573C42.2608 29.3794 31.317 39.6522 30.2569 52.6656L61.4882 83.8818H77.3463V91.548H58.1503L30.1663 63.4582V74.55L47.2854 91.5598L22.5762 91.548V54.7327C22.5762 36.5732 37.378 21.7998 55.573 21.7998H85.027L77.3502 29.4621V38.9159L77.3463 38.9199Z" fill="white"/>
<path d="M416.507 40.0935C420.097 44.044 421.889 48.7579 421.889 54.2349V72.5669H413.051V53.0204C413.051 50.2411 411.996 47.8746 409.885 45.9257C407.775 43.9769 405.364 43.0024 402.65 43.0024C399.113 43.0024 396.498 44.1784 394.811 46.5354C393.123 48.8923 392.277 51.6284 392.277 54.7581V72.5717H383.439V54.2109C383.439 48.6907 385.251 43.9721 388.868 40.0503C392.486 36.1333 397.078 34.1748 402.65 34.1748C408.298 34.1748 412.918 36.1477 416.507 40.0983V40.0935Z" fill="#09090B"/>
<path d="M343.11 39.791C339.359 43.5367 337.486 48.0562 337.486 53.359C337.486 58.6619 339.359 63.1861 343.11 66.9413C346.861 70.6965 351.387 72.5717 356.697 72.5717C362.007 72.5717 366.537 70.6965 370.298 66.9413C374.058 63.1861 375.936 58.6619 375.936 53.359C375.936 48.0562 374.058 43.5367 370.298 39.791C366.537 36.0453 362.007 34.1748 356.697 34.1748C351.391 34.1748 346.861 36.0453 343.11 39.791ZM364.113 45.9626C366.162 47.9992 367.189 50.4631 367.189 53.3543C367.189 56.2454 366.162 58.7141 364.113 60.7602C362.064 62.8064 359.592 63.8318 356.697 63.8318C353.802 63.8318 351.358 62.8064 349.309 60.7602C347.26 58.7141 346.233 56.2454 346.233 53.3543C346.233 50.4631 347.26 47.9992 349.309 45.9626C351.358 43.9259 353.821 42.9052 356.697 42.9052C359.592 42.9052 362.064 43.9259 364.113 45.9626Z" fill="#09090B"/>
<path d="M329.987 34.1748V43.0349C329.761 43.0157 329.54 43.0061 329.314 43.0061C325.573 43.0061 322.881 44.2396 321.232 46.7066C319.583 49.1736 318.761 52.039 318.761 55.3075V72.5717H309.824V54.8515C309.824 49.2312 311.593 44.3788 315.132 40.2991C318.67 36.2194 323.396 34.1796 329.314 34.1796H329.987V34.1748Z" fill="#09090B"/>
<path d="M269.484 66.9413C265.739 63.1861 263.869 58.6618 263.869 53.359C263.869 48.0562 265.739 43.5366 269.484 39.791C273.228 36.0453 277.746 34.1748 283.047 34.1748C287.361 34.1748 291.177 35.4234 294.485 37.9252C297.798 40.4224 300.095 43.6601 301.381 47.6384H291.808C289.639 44.4861 286.721 42.91 283.047 42.91C280.176 42.91 277.718 43.9307 275.672 45.9673C273.627 48.0039 272.602 50.4678 272.602 53.359C272.602 56.2502 273.627 58.7188 275.672 60.765C277.718 62.8111 280.176 63.8365 283.047 63.8365C286.721 63.8365 289.639 62.2509 291.808 59.0796H301.381C300.095 63.0532 297.798 66.2956 294.485 68.807C291.172 71.3184 287.361 72.5717 283.047 72.5717C277.751 72.5717 273.228 70.6965 269.484 66.9413Z" fill="#09090B"/>
<path d="M246.521 35.1113H255.43V72.5717H246.521V35.1113Z" fill="#09090B"/>
<path d="M255.432 22.0001L255.432 26.4425C255.432 28.9026 253.437 30.897 250.977 30.897C248.517 30.897 246.523 28.9026 246.523 26.4425L246.523 22.0001L255.432 22.0001Z" fill="#A3E635"/>
<path d="M232.701 40.0935C236.29 44.044 238.082 48.7579 238.082 54.2349V72.5669H229.245V53.0204C229.245 50.2411 228.189 47.8746 226.079 45.9257C223.968 43.9769 221.558 43.0024 218.843 43.0024C215.306 43.0024 212.692 44.1784 211.004 46.5354C209.316 48.8923 208.47 51.6284 208.47 54.7581V72.5717H199.633V54.2109C199.633 48.6907 201.444 43.9721 205.062 40.0503C208.679 36.1333 213.272 34.1748 218.843 34.1748C224.491 34.1748 229.112 36.1477 232.701 40.0983V40.0935Z" fill="#09090B"/>
<path d="M192.13 55.6575C192.13 60.3019 190.469 64.278 187.152 67.5859C184.832 69.8055 182.111 71.2852 178.997 72.0203C175.882 72.7554 172.762 72.7554 169.637 72.0203C166.513 71.2852 163.798 69.8055 161.501 67.5859C158.16 64.278 156.494 60.3019 156.494 55.6575V27.6191H165.81V55.6575C165.81 57.7577 166.561 59.5525 168.068 61.0465C169.902 62.5787 171.987 63.3472 174.327 63.3472C176.666 63.3472 178.746 62.5787 180.556 61.0465C182.063 59.5525 182.814 57.7577 182.814 55.6575V27.6191H192.13V55.6575Z" fill="#09090B"/>
</svg>
